<mxfile host="Electron" agent="Mozilla/5.0 (Windows NT 10.0; Win64; x64) AppleWebKit/537.36 (KHTML, like Gecko) draw.io/26.0.4 Chrome/128.0.6613.186 Electron/32.2.5 Safari/537.36" version="26.0.4">
  <diagram name="Page-1" id="_etRSswffQjf_XpVc8rh">
    <mxGraphModel dx="1098" dy="2040" grid="1" gridSize="10" guides="1" tooltips="1" connect="1" arrows="1" fold="1" page="1" pageScale="1" pageWidth="850" pageHeight="1100" math="0" shadow="0">
      <root>
        <mxCell id="0" />
        <mxCell id="1" parent="0" />
        <mxCell id="oDz5h7pmXZZK0eenKqbY-1" value="&lt;font color=&quot;#000000&quot;&gt;cryptography&lt;/font&gt;" style="shape=process;whiteSpace=wrap;html=1;backgroundOutline=1;fillColor=#f8cecc;gradientColor=#ea6b66;strokeColor=#b85450;" parent="1" vertex="1">
          <mxGeometry x="30" y="240" width="140" height="70" as="geometry" />
        </mxCell>
        <mxCell id="oDz5h7pmXZZK0eenKqbY-2" value="&lt;font color=&quot;#000000&quot;&gt;json&lt;/font&gt;" style="rounded=0;whiteSpace=wrap;html=1;fillColor=#f5f5f5;gradientColor=#b3b3b3;strokeColor=#666666;" parent="1" vertex="1">
          <mxGeometry x="30" y="149" width="140" height="70" as="geometry" />
        </mxCell>
        <mxCell id="oDz5h7pmXZZK0eenKqbY-4" value="&lt;font color=&quot;#000000&quot;&gt;administarative.py&lt;/font&gt;" style="shape=document;whiteSpace=wrap;html=1;boundedLbl=1;fillColor=#fff2cc;strokeColor=#d6b656;gradientColor=#ffd966;" parent="1" vertex="1">
          <mxGeometry x="590" y="360" width="140" height="90" as="geometry" />
        </mxCell>
        <mxCell id="oDz5h7pmXZZK0eenKqbY-5" value="&lt;font color=&quot;#000000&quot;&gt;administrative.ui&lt;/font&gt;" style="shape=note;whiteSpace=wrap;html=1;backgroundOutline=1;darkOpacity=0.05;fillColor=#ffcd28;gradientColor=#ffa500;strokeColor=#d79b00;size=34;" parent="1" vertex="1">
          <mxGeometry x="180" y="390" width="140" height="80" as="geometry" />
        </mxCell>
        <mxCell id="oDz5h7pmXZZK0eenKqbY-6" value="&lt;font color=&quot;#000000&quot;&gt;administarative_ui.py&lt;/font&gt;" style="shape=document;whiteSpace=wrap;html=1;boundedLbl=1;fillColor=#ffcd28;strokeColor=#d79b00;gradientColor=#ffa500;" parent="1" vertex="1">
          <mxGeometry x="370" y="390" width="140" height="90" as="geometry" />
        </mxCell>
        <mxCell id="oDz5h7pmXZZK0eenKqbY-7" value="&lt;font color=&quot;#000000&quot;&gt;cipher.py&lt;/font&gt;" style="shape=document;whiteSpace=wrap;html=1;boundedLbl=1;fillColor=#ffcd28;strokeColor=#d79b00;gradientColor=#ffa500;" parent="1" vertex="1">
          <mxGeometry x="320" y="240" width="140" height="90" as="geometry" />
        </mxCell>
        <mxCell id="oDz5h7pmXZZK0eenKqbY-8" value="&lt;font color=&quot;#000000&quot;&gt;settingsDialog_ui.py&lt;/font&gt;" style="shape=document;whiteSpace=wrap;html=1;boundedLbl=1;fillColor=#ffcd28;strokeColor=#d79b00;gradientColor=#ffa500;" parent="1" vertex="1">
          <mxGeometry x="390" y="520" width="140" height="90" as="geometry" />
        </mxCell>
        <mxCell id="oDz5h7pmXZZK0eenKqbY-10" value="&lt;span style=&quot;color: rgb(0, 0, 0);&quot;&gt;settingsDialog.ui&lt;/span&gt;" style="shape=note;whiteSpace=wrap;html=1;backgroundOutline=1;darkOpacity=0.05;fillColor=#ffcd28;gradientColor=#ffa500;strokeColor=#d79b00;size=34;" parent="1" vertex="1">
          <mxGeometry x="180" y="520" width="140" height="80" as="geometry" />
        </mxCell>
        <mxCell id="oDz5h7pmXZZK0eenKqbY-11" value="" style="endArrow=classic;html=1;rounded=0;exitX=1;exitY=0.563;exitDx=0;exitDy=0;exitPerimeter=0;entryX=0;entryY=0.5;entryDx=0;entryDy=0;" parent="1" source="oDz5h7pmXZZK0eenKqbY-5" target="oDz5h7pmXZZK0eenKqbY-6" edge="1">
          <mxGeometry relative="1" as="geometry">
            <mxPoint x="305" y="430" as="sourcePoint" />
            <mxPoint x="360" y="445" as="targetPoint" />
          </mxGeometry>
        </mxCell>
        <mxCell id="oDz5h7pmXZZK0eenKqbY-13" style="edgeStyle=orthogonalEdgeStyle;rounded=0;orthogonalLoop=1;jettySize=auto;html=1;" parent="1" source="oDz5h7pmXZZK0eenKqbY-1" edge="1">
          <mxGeometry relative="1" as="geometry">
            <mxPoint x="320" y="275" as="targetPoint" />
          </mxGeometry>
        </mxCell>
        <mxCell id="oDz5h7pmXZZK0eenKqbY-23" value="" style="endArrow=classic;html=1;rounded=0;exitX=1;exitY=0.6;exitDx=0;exitDy=0;exitPerimeter=0;entryX=0;entryY=0.5;entryDx=0;entryDy=0;" parent="1" source="oDz5h7pmXZZK0eenKqbY-10" target="oDz5h7pmXZZK0eenKqbY-8" edge="1">
          <mxGeometry relative="1" as="geometry">
            <mxPoint x="250" y="520" as="sourcePoint" />
            <mxPoint x="320" y="520" as="targetPoint" />
          </mxGeometry>
        </mxCell>
        <mxCell id="oDz5h7pmXZZK0eenKqbY-27" value="" style="endArrow=classic;html=1;rounded=0;entryX=0.007;entryY=0.344;entryDx=0;entryDy=0;entryPerimeter=0;exitX=1;exitY=0.5;exitDx=0;exitDy=0;" parent="1" source="oDz5h7pmXZZK0eenKqbY-6" target="oDz5h7pmXZZK0eenKqbY-4" edge="1">
          <mxGeometry relative="1" as="geometry">
            <mxPoint x="520" y="426" as="sourcePoint" />
            <mxPoint x="570" y="400" as="targetPoint" />
            <Array as="points">
              <mxPoint x="550" y="440" />
              <mxPoint x="550" y="390" />
            </Array>
          </mxGeometry>
        </mxCell>
        <mxCell id="oDz5h7pmXZZK0eenKqbY-29" value="" style="endArrow=classic;html=1;rounded=0;entryX=0.25;entryY=0;entryDx=0;entryDy=0;" parent="1" edge="1">
          <mxGeometry width="50" height="50" relative="1" as="geometry">
            <mxPoint x="457" y="280" as="sourcePoint" />
            <mxPoint x="622" y="360" as="targetPoint" />
            <Array as="points">
              <mxPoint x="622" y="280" />
            </Array>
          </mxGeometry>
        </mxCell>
        <mxCell id="oDz5h7pmXZZK0eenKqbY-30" value="" style="endArrow=classic;html=1;rounded=0;entryX=0.343;entryY=0.989;entryDx=0;entryDy=0;entryPerimeter=0;exitX=1.014;exitY=0.389;exitDx=0;exitDy=0;exitPerimeter=0;" parent="1" source="oDz5h7pmXZZK0eenKqbY-8" target="oDz5h7pmXZZK0eenKqbY-4" edge="1">
          <mxGeometry width="50" height="50" relative="1" as="geometry">
            <mxPoint x="460" y="510" as="sourcePoint" />
            <mxPoint x="671" y="431" as="targetPoint" />
            <Array as="points">
              <mxPoint x="638" y="555" />
            </Array>
          </mxGeometry>
        </mxCell>
        <mxCell id="oDz5h7pmXZZK0eenKqbY-31" value="" style="endArrow=classic;html=1;rounded=0;entryX=0.379;entryY=0;entryDx=0;entryDy=0;entryPerimeter=0;exitX=1;exitY=0.5;exitDx=0;exitDy=0;" parent="1" source="oDz5h7pmXZZK0eenKqbY-2" target="oDz5h7pmXZZK0eenKqbY-4" edge="1">
          <mxGeometry relative="1" as="geometry">
            <mxPoint x="170" y="164.5" as="sourcePoint" />
            <mxPoint x="270" y="164.5" as="targetPoint" />
            <Array as="points">
              <mxPoint x="640" y="184" />
            </Array>
          </mxGeometry>
        </mxCell>
        <mxCell id="oDz5h7pmXZZK0eenKqbY-33" value="&lt;font color=&quot;#000000&quot;&gt;os&lt;/font&gt;" style="rounded=0;whiteSpace=wrap;html=1;fillColor=#f5f5f5;gradientColor=#b3b3b3;strokeColor=#666666;" parent="1" vertex="1">
          <mxGeometry x="30" y="55" width="140" height="70" as="geometry" />
        </mxCell>
        <mxCell id="oDz5h7pmXZZK0eenKqbY-34" value="&lt;font color=&quot;#000000&quot;&gt;os&lt;/font&gt;" style="rounded=0;whiteSpace=wrap;html=1;fillColor=#f5f5f5;gradientColor=#b3b3b3;strokeColor=#666666;" parent="1" vertex="1">
          <mxGeometry x="30" y="-40" width="140" height="70" as="geometry" />
        </mxCell>
        <mxCell id="oDz5h7pmXZZK0eenKqbY-35" value="" style="endArrow=classic;html=1;rounded=0;entryX=0.636;entryY=-0.033;entryDx=0;entryDy=0;entryPerimeter=0;exitX=1;exitY=0.5;exitDx=0;exitDy=0;" parent="1" source="oDz5h7pmXZZK0eenKqbY-34" target="oDz5h7pmXZZK0eenKqbY-4" edge="1">
          <mxGeometry relative="1" as="geometry">
            <mxPoint x="170" y="70" as="sourcePoint" />
            <mxPoint x="270" y="70" as="targetPoint" />
            <Array as="points">
              <mxPoint x="680" y="-5" />
            </Array>
          </mxGeometry>
        </mxCell>
        <mxCell id="oDz5h7pmXZZK0eenKqbY-37" value="" style="endArrow=classic;html=1;rounded=0;exitX=1;exitY=0.5;exitDx=0;exitDy=0;" parent="1" source="oDz5h7pmXZZK0eenKqbY-33" edge="1">
          <mxGeometry relative="1" as="geometry">
            <mxPoint x="170" y="64.5" as="sourcePoint" />
            <mxPoint x="720" y="350" as="targetPoint" />
            <Array as="points">
              <mxPoint x="720" y="90" />
            </Array>
          </mxGeometry>
        </mxCell>
        <mxCell id="oDz5h7pmXZZK0eenKqbY-49" style="edgeStyle=orthogonalEdgeStyle;rounded=0;orthogonalLoop=1;jettySize=auto;html=1;exitX=0.5;exitY=0;exitDx=0;exitDy=0;entryX=0.5;entryY=0;entryDx=0;entryDy=0;" parent="1" source="oDz5h7pmXZZK0eenKqbY-39" target="oDz5h7pmXZZK0eenKqbY-6" edge="1">
          <mxGeometry relative="1" as="geometry" />
        </mxCell>
        <mxCell id="oDz5h7pmXZZK0eenKqbY-39" value="&lt;font color=&quot;#000000&quot;&gt;PySide6&lt;/font&gt;" style="shape=process;whiteSpace=wrap;html=1;backgroundOutline=1;fillColor=#dae8fc;gradientColor=#7ea6e0;strokeColor=#6c8ebf;" parent="1" vertex="1">
          <mxGeometry x="30" y="650" width="140" height="70" as="geometry" />
        </mxCell>
        <mxCell id="oDz5h7pmXZZK0eenKqbY-40" value="" style="endArrow=classic;html=1;rounded=0;entryX=0.686;entryY=0.756;entryDx=0;entryDy=0;entryPerimeter=0;" parent="1" target="oDz5h7pmXZZK0eenKqbY-4" edge="1">
          <mxGeometry relative="1" as="geometry">
            <mxPoint x="170" y="684.5" as="sourcePoint" />
            <mxPoint x="270" y="684.5" as="targetPoint" />
            <Array as="points">
              <mxPoint x="686" y="680" />
            </Array>
          </mxGeometry>
        </mxCell>
      </root>
    </mxGraphModel>
  </diagram>
</mxfile>
